<?xml version="1.0" standalone="no"?>
<!DOCTYPE svg PUBLIC "-//W3C//DTD SVG 20010904//EN"
 "http://www.w3.org/TR/2001/REC-SVG-20010904/DTD/svg10.dtd">
<svg version="1.0" xmlns="http://www.w3.org/2000/svg"
 width="1000.000000pt" height="1000.000000pt" viewBox="0 0 1000.000000 1000.000000"
 preserveAspectRatio="xMidYMid meet">
<metadata>
Created by potrace 1.11, written by Peter Selinger 2001-2013
</metadata>
<g transform="translate(0.000000,1000.000000) scale(0.100000,-0.100000)"
fill="#000000" stroke="none">
<path d="M4755 9764 c-1488 -95 -2799 -823 -3654 -2028 -190 -267 -413 -680
-534 -991 -500 -1274 -438 -2686 172 -3903 417 -833 1086 -1541 1893 -2004
1477 -847 3289 -847 4766 0 631 362 1192 887 1599 1497 542 812 829 1807 799
2771 -22 724 -176 1349 -491 1989 -550 1122 -1497 1967 -2685 2398 -334 120
-738 212 -1120 252 -147 16 -612 27 -745 19z m560 -494 c1503 -109 2824 -981
3520 -2323 474 -915 599 -1995 345 -3007 -254 -1018 -887 -1920 -1760 -2510
-594 -401 -1222 -631 -1955 -716 -210 -25 -690 -25 -900 0 -733 85 -1361 315
-1955 716 -786 532 -1379 1315 -1677 2220 -217 658 -269 1383 -148 2080 261
1503 1328 2772 2769 3295 554 200 1177 287 1761 245z"/>
<path d="M4810 9070 c-1092 -53 -2127 -550 -2853 -1370 -566 -639 -903 -1395
-1009 -2265 -21 -174 -18 -762 5 -940 101 -780 408 -1506 879 -2077 l38 -46
173 83 c251 121 490 225 725 316 23 9 19 14 -79 117 -420 439 -834 1082 -1090
1692 -55 132 -129 333 -129 352 0 12 122 6 405 -18 1128 -96 2018 -297 2377
-537 229 -152 430 -392 576 -686 31 -64 58 -118 59 -120 1 -2 51 44 110 102
380 372 857 693 1344 905 346 150 801 268 1243 322 252 30 420 40 711 40 319
0 435 -7 435 -26 0 -25 -110 -268 -205 -451 -293 -568 -664 -1088 -1084 -1516
-96 -97 -172 -179 -170 -181 2 -2 45 -20 94 -39 141 -54 424 -181 609 -274 92
-46 174 -82 180 -80 18 7 166 200 260 340 385 573 616 1234 677 1936 15 173 6
674 -15 829 -120 889 -465 1631 -1063 2287 -260 285 -640 586 -989 784 -454
256 -973 427 -1507 496 -102 13 -493 37 -537 33 -8 0 -85 -4 -170 -8z"/>
<path d="M7910 4729 c-535 -40 -1022 -146 -1425 -311 -502 -207 -980 -527
-1392 -933 l-122 -120 25 -80 c30 -98 90 -336 99 -397 l7 -45 -76 -12 c-126
-18 -123 -20 -136 47 -128 637 -418 1134 -789 1355 -292 174 -931 330 -1761
431 -260 32 -534 58 -559 54 -18 -3 -16 -11 28 -113 209 -481 524 -994 840
-1370 187 -223 500 -518 707 -667 725 -520 1558 -674 2396 -444 285 79 609
229 878 409 226 151 383 280 608 502 369 361 681 770 967 1266 70 122 225 420
225 433 0 9 -386 5 -520 -5z"/>
<path d="M2734 2541 c-310 -125 -724 -314 -724 -331 0 -11 234 -236 345 -331
633 -544 1403 -873 2255 -965 209 -23 601 -23 810 0 852 92 1622 421 2255 965
119 102 335 310 335 322 0 20 -449 230 -744 348 l-177 71 -122 -94 c-495 -377
-983 -591 -1547 -677 -195 -30 -620 -33 -805 -6 -440 66 -825 206 -1191 436
-149 94 -227 151 -435 321 l-35 29 -220 -88z"/>
</g>
</svg>
